<mxfile host="app.diagrams.net" modified="2024-05-24T13:52:14.456Z" agent="Mozilla/5.0 (Macintosh; Intel Mac OS X 10_15_7) AppleWebKit/537.36 (KHTML, like Gecko) Chrome/124.0.0.0 Safari/537.36" etag="DU2Cs3b71rw3EI5uwdtF" version="24.3.1" type="device" pages="6">
  <diagram id="piDafpqhtRUU5qUU-vj8" name="Home">
    <mxGraphModel dx="1658" dy="996" grid="1" gridSize="10" guides="1" tooltips="1" connect="1" arrows="1" fold="1" page="1" pageScale="1" pageWidth="827" pageHeight="1169" math="0" shadow="0">
      <root>
        <mxCell id="0" />
        <mxCell id="1" parent="0" />
        <mxCell id="BqWQgCUB6vg-3GsV6ciN-16" value="" style="verticalLabelPosition=bottom;shadow=0;dashed=0;align=center;html=1;verticalAlign=top;strokeWidth=1;shape=mxgraph.mockup.misc.playbackControls;sketch=0;strokeColor=#999999;fillColor2=#99ddff;strokeColor2=none;fillColor3=#ffffff;strokeColor3=none;" vertex="1" parent="1">
          <mxGeometry x="360" y="1050" width="250" height="30" as="geometry" />
        </mxCell>
        <mxCell id="BqWQgCUB6vg-3GsV6ciN-17" value="" style="verticalLabelPosition=bottom;shadow=0;dashed=0;align=center;html=1;verticalAlign=top;strokeWidth=1;shape=mxgraph.mockup.graphics.simpleIcon;strokeColor=#999999;" vertex="1" parent="1">
          <mxGeometry x="460" y="1040" width="50" height="50" as="geometry" />
        </mxCell>
        <mxCell id="BqWQgCUB6vg-3GsV6ciN-19" value="" style="strokeWidth=1;shadow=0;dashed=0;align=center;html=1;shape=mxgraph.mockup.containers.browserWindow;rSize=0;strokeColor=#666666;strokeColor2=#008cff;strokeColor3=#c4c4c4;mainText=,;recursiveResize=0;" vertex="1" parent="1">
          <mxGeometry x="-20" y="600" width="824" height="1200" as="geometry" />
        </mxCell>
        <mxCell id="BqWQgCUB6vg-3GsV6ciN-20" value="" style="rounded=0;whiteSpace=wrap;html=1;" vertex="1" parent="BqWQgCUB6vg-3GsV6ciN-19">
          <mxGeometry y="110" width="810" height="70" as="geometry" />
        </mxCell>
        <mxCell id="BqWQgCUB6vg-3GsV6ciN-21" value="Page 1" style="strokeWidth=1;shadow=0;dashed=0;align=center;html=1;shape=mxgraph.mockup.containers.anchor;fontSize=17;fontColor=#666666;align=left;whiteSpace=wrap;" vertex="1" parent="BqWQgCUB6vg-3GsV6ciN-19">
          <mxGeometry x="60" y="12" width="110" height="26" as="geometry" />
        </mxCell>
        <mxCell id="BqWQgCUB6vg-3GsV6ciN-22" value="https://www.draw.io" style="strokeWidth=1;shadow=0;dashed=0;align=center;html=1;shape=mxgraph.mockup.containers.anchor;rSize=0;fontSize=17;fontColor=#666666;align=left;" vertex="1" parent="BqWQgCUB6vg-3GsV6ciN-19">
          <mxGeometry x="130" y="60" width="250" height="26" as="geometry" />
        </mxCell>
        <mxCell id="BqWQgCUB6vg-3GsV6ciN-23" value="About US" style="shape=rectangle;strokeColor=none;fillColor=none;linkText=;fontSize=17;fontColor=#0000ff;fontStyle=4;html=1;align=center;" vertex="1" parent="BqWQgCUB6vg-3GsV6ciN-19">
          <mxGeometry x="433" y="130" width="150" height="30" as="geometry" />
        </mxCell>
        <mxCell id="BqWQgCUB6vg-3GsV6ciN-25" value="Menu" style="shape=rectangle;strokeColor=none;fillColor=none;linkText=;fontSize=17;fontColor=#0000ff;fontStyle=4;html=1;align=center;" vertex="1" parent="BqWQgCUB6vg-3GsV6ciN-19">
          <mxGeometry x="210" y="130" width="150" height="30" as="geometry" />
        </mxCell>
        <mxCell id="BqWQgCUB6vg-3GsV6ciN-26" value="&lt;font style=&quot;font-size: 27px;&quot;&gt;LOGO&lt;/font&gt;" style="text;html=1;align=center;verticalAlign=middle;whiteSpace=wrap;rounded=0;" vertex="1" parent="BqWQgCUB6vg-3GsV6ciN-19">
          <mxGeometry x="21" y="110" width="129" height="70" as="geometry" />
        </mxCell>
        <mxCell id="BqWQgCUB6vg-3GsV6ciN-27" value="" style="verticalLabelPosition=bottom;shadow=0;dashed=0;align=center;html=1;verticalAlign=top;strokeWidth=1;shape=mxgraph.mockup.containers.videoPlayer;strokeColor=#666666;strokeColor2=#008cff;strokeColor3=#c4c4c4;textColor=#666666;fillColor2=#008cff;barHeight=30;barPos=20;" vertex="1" parent="BqWQgCUB6vg-3GsV6ciN-19">
          <mxGeometry x="120" y="190" width="540" height="240" as="geometry" />
        </mxCell>
        <mxCell id="BqWQgCUB6vg-3GsV6ciN-28" value="Contact" style="strokeWidth=1;shadow=0;dashed=0;align=center;html=1;shape=mxgraph.mockup.buttons.button;strokeColor=#666666;fontColor=#ffffff;mainText=;buttonStyle=round;fontSize=17;fontStyle=1;fillColor=#008cff;whiteSpace=wrap;" vertex="1" parent="BqWQgCUB6vg-3GsV6ciN-19">
          <mxGeometry x="679" y="950" width="131" height="40" as="geometry" />
        </mxCell>
        <mxCell id="BqWQgCUB6vg-3GsV6ciN-29" value="" style="rounded=0;whiteSpace=wrap;html=1;" vertex="1" parent="BqWQgCUB6vg-3GsV6ciN-19">
          <mxGeometry y="440" width="810" height="250" as="geometry" />
        </mxCell>
        <mxCell id="BqWQgCUB6vg-3GsV6ciN-30" value="Menu Suggestions" style="text;html=1;align=center;verticalAlign=middle;whiteSpace=wrap;rounded=0;" vertex="1" parent="BqWQgCUB6vg-3GsV6ciN-19">
          <mxGeometry x="291" y="455" width="239" height="30" as="geometry" />
        </mxCell>
        <mxCell id="BqWQgCUB6vg-3GsV6ciN-32" value="" style="verticalLabelPosition=bottom;shadow=0;dashed=0;align=center;html=1;verticalAlign=top;strokeWidth=1;shape=mxgraph.mockup.graphics.simpleIcon;strokeColor=#999999;" vertex="1" parent="BqWQgCUB6vg-3GsV6ciN-19">
          <mxGeometry x="21" y="485" width="169" height="145" as="geometry" />
        </mxCell>
        <mxCell id="BqWQgCUB6vg-3GsV6ciN-33" value="" style="verticalLabelPosition=bottom;shadow=0;dashed=0;align=center;html=1;verticalAlign=top;strokeWidth=1;shape=mxgraph.mockup.graphics.simpleIcon;strokeColor=#999999;" vertex="1" parent="BqWQgCUB6vg-3GsV6ciN-19">
          <mxGeometry x="310" y="485" width="169" height="145" as="geometry" />
        </mxCell>
        <mxCell id="BqWQgCUB6vg-3GsV6ciN-34" value="" style="verticalLabelPosition=bottom;shadow=0;dashed=0;align=center;html=1;verticalAlign=top;strokeWidth=1;shape=mxgraph.mockup.graphics.simpleIcon;strokeColor=#999999;" vertex="1" parent="BqWQgCUB6vg-3GsV6ciN-19">
          <mxGeometry x="601" y="485" width="169" height="145" as="geometry" />
        </mxCell>
        <mxCell id="BqWQgCUB6vg-3GsV6ciN-35" value="" style="strokeColor=#999999;verticalLabelPosition=bottom;shadow=0;dashed=0;verticalAlign=top;strokeWidth=2;html=1;shape=mxgraph.mockup.misc.shareIcon;" vertex="1" parent="BqWQgCUB6vg-3GsV6ciN-19">
          <mxGeometry x="441" y="640" width="29" height="30" as="geometry" />
        </mxCell>
        <mxCell id="BqWQgCUB6vg-3GsV6ciN-36" value="" style="verticalLabelPosition=bottom;shadow=0;dashed=0;align=center;html=1;verticalAlign=top;strokeWidth=1;shape=mxgraph.mockup.misc.shoppingCart;strokeColor=#999999;" vertex="1" parent="BqWQgCUB6vg-3GsV6ciN-19">
          <mxGeometry x="390" y="640" width="30" height="30" as="geometry" />
        </mxCell>
        <mxCell id="BqWQgCUB6vg-3GsV6ciN-39" value="What others are saying" style="text;html=1;align=center;verticalAlign=middle;whiteSpace=wrap;rounded=0;" vertex="1" parent="BqWQgCUB6vg-3GsV6ciN-19">
          <mxGeometry x="280" y="720" width="240" height="30" as="geometry" />
        </mxCell>
        <mxCell id="BqWQgCUB6vg-3GsV6ciN-43" value="" style="verticalLabelPosition=bottom;shadow=0;dashed=0;align=center;html=1;verticalAlign=top;strokeWidth=1;shape=mxgraph.mockup.graphics.simpleIcon;strokeColor=#999999;" vertex="1" parent="BqWQgCUB6vg-3GsV6ciN-19">
          <mxGeometry x="30.5" y="780" width="259.5" height="120" as="geometry" />
        </mxCell>
        <mxCell id="BqWQgCUB6vg-3GsV6ciN-44" value="" style="verticalLabelPosition=bottom;shadow=0;dashed=0;align=center;html=1;verticalAlign=top;strokeWidth=1;shape=mxgraph.mockup.graphics.simpleIcon;strokeColor=#999999;" vertex="1" parent="BqWQgCUB6vg-3GsV6ciN-19">
          <mxGeometry x="454" y="780" width="259.5" height="120" as="geometry" />
        </mxCell>
        <mxCell id="BqWQgCUB6vg-3GsV6ciN-46" value="" style="rounded=0;whiteSpace=wrap;html=1;" vertex="1" parent="BqWQgCUB6vg-3GsV6ciN-19">
          <mxGeometry x="2" y="1010" width="820" height="180" as="geometry" />
        </mxCell>
        <mxCell id="BqWQgCUB6vg-3GsV6ciN-47" value="" style="strokeColor=#999999;verticalLabelPosition=bottom;shadow=0;dashed=0;verticalAlign=top;strokeWidth=2;html=1;shape=mxgraph.mockup.misc.copyrightIcon;" vertex="1" parent="BqWQgCUB6vg-3GsV6ciN-19">
          <mxGeometry x="382.5" y="1160" width="25" height="25" as="geometry" />
        </mxCell>
        <mxCell id="BqWQgCUB6vg-3GsV6ciN-48" value="" style="verticalLabelPosition=bottom;shadow=0;dashed=0;align=center;html=1;verticalAlign=top;strokeWidth=1;shape=mxgraph.mockup.misc.mail2;strokeColor=#999999;" vertex="1" parent="BqWQgCUB6vg-3GsV6ciN-19">
          <mxGeometry x="770" y="1020" width="33" height="30" as="geometry" />
        </mxCell>
        <mxCell id="BqWQgCUB6vg-3GsV6ciN-49" value="&lt;h1 style=&quot;margin-top: 0px;&quot;&gt;&lt;br&gt;&lt;/h1&gt;&lt;h1 style=&quot;margin-top: 0px;&quot;&gt;Quote about coffee&lt;/h1&gt;&lt;div&gt;Lorem ipsum&lt;/div&gt;" style="text;html=1;whiteSpace=wrap;overflow=hidden;rounded=0;align=center;" vertex="1" parent="BqWQgCUB6vg-3GsV6ciN-19">
          <mxGeometry x="250" y="250" width="280" height="120" as="geometry" />
        </mxCell>
        <mxCell id="BqWQgCUB6vg-3GsV6ciN-50" value="Events" style="shape=rectangle;strokeColor=none;fillColor=none;linkText=;fontSize=17;fontColor=#0000ff;fontStyle=4;html=1;align=center;" vertex="1" parent="BqWQgCUB6vg-3GsV6ciN-19">
          <mxGeometry x="315" y="130" width="150" height="30" as="geometry" />
        </mxCell>
        <mxCell id="luoLV8NqY1bxUNto-RqX-1" value="Book here" style="strokeWidth=1;shadow=0;dashed=0;align=center;html=1;shape=mxgraph.mockup.buttons.button;strokeColor=#666666;fontColor=#ffffff;mainText=;buttonStyle=round;fontSize=17;fontStyle=1;fillColor=#008cff;whiteSpace=wrap;" vertex="1" parent="BqWQgCUB6vg-3GsV6ciN-19">
          <mxGeometry x="650" y="120" width="150" height="50" as="geometry" />
        </mxCell>
      </root>
    </mxGraphModel>
  </diagram>
  <diagram id="MlUdfzrxdNrh9a2yvLlB" name="Menu">
    <mxGraphModel dx="1681" dy="996" grid="1" gridSize="10" guides="1" tooltips="1" connect="1" arrows="1" fold="1" page="1" pageScale="1" pageWidth="850" pageHeight="1100" math="0" shadow="0">
      <root>
        <mxCell id="0" />
        <mxCell id="1" parent="0" />
        <mxCell id="8SAc3HP20exjLuLPc1_A-1" value="" style="strokeWidth=1;shadow=0;dashed=0;align=center;html=1;shape=mxgraph.mockup.containers.browserWindow;rSize=0;strokeColor=#666666;strokeColor2=#008cff;strokeColor3=#c4c4c4;mainText=,;recursiveResize=0;" vertex="1" parent="1">
          <mxGeometry x="-20" y="600" width="824" height="1200" as="geometry" />
        </mxCell>
        <mxCell id="8SAc3HP20exjLuLPc1_A-2" value="" style="rounded=0;whiteSpace=wrap;html=1;" vertex="1" parent="8SAc3HP20exjLuLPc1_A-1">
          <mxGeometry y="110" width="810" height="70" as="geometry" />
        </mxCell>
        <mxCell id="8SAc3HP20exjLuLPc1_A-3" value="Page 1" style="strokeWidth=1;shadow=0;dashed=0;align=center;html=1;shape=mxgraph.mockup.containers.anchor;fontSize=17;fontColor=#666666;align=left;whiteSpace=wrap;" vertex="1" parent="8SAc3HP20exjLuLPc1_A-1">
          <mxGeometry x="60" y="12" width="110" height="26" as="geometry" />
        </mxCell>
        <mxCell id="8SAc3HP20exjLuLPc1_A-4" value="https://www.draw.io" style="strokeWidth=1;shadow=0;dashed=0;align=center;html=1;shape=mxgraph.mockup.containers.anchor;rSize=0;fontSize=17;fontColor=#666666;align=left;" vertex="1" parent="8SAc3HP20exjLuLPc1_A-1">
          <mxGeometry x="130" y="60" width="250" height="26" as="geometry" />
        </mxCell>
        <mxCell id="8SAc3HP20exjLuLPc1_A-5" value="About US" style="shape=rectangle;strokeColor=none;fillColor=none;linkText=;fontSize=17;fontColor=#0000ff;fontStyle=4;html=1;align=center;" vertex="1" parent="8SAc3HP20exjLuLPc1_A-1">
          <mxGeometry x="433" y="130" width="150" height="30" as="geometry" />
        </mxCell>
        <mxCell id="8SAc3HP20exjLuLPc1_A-7" value="Menu" style="shape=rectangle;strokeColor=none;fillColor=none;linkText=;fontSize=17;fontColor=#0000ff;fontStyle=4;html=1;align=center;" vertex="1" parent="8SAc3HP20exjLuLPc1_A-1">
          <mxGeometry x="193" y="130" width="150" height="30" as="geometry" />
        </mxCell>
        <mxCell id="8SAc3HP20exjLuLPc1_A-8" value="&lt;font style=&quot;font-size: 27px;&quot;&gt;LOGO&lt;/font&gt;" style="text;html=1;align=center;verticalAlign=middle;whiteSpace=wrap;rounded=0;" vertex="1" parent="8SAc3HP20exjLuLPc1_A-1">
          <mxGeometry x="21" y="110" width="129" height="70" as="geometry" />
        </mxCell>
        <mxCell id="8SAc3HP20exjLuLPc1_A-11" value="" style="rounded=0;whiteSpace=wrap;html=1;" vertex="1" parent="8SAc3HP20exjLuLPc1_A-1">
          <mxGeometry y="210" width="820" height="780" as="geometry" />
        </mxCell>
        <mxCell id="8SAc3HP20exjLuLPc1_A-14" value="" style="verticalLabelPosition=bottom;shadow=0;dashed=0;align=center;html=1;verticalAlign=top;strokeWidth=1;shape=mxgraph.mockup.graphics.simpleIcon;strokeColor=#999999;" vertex="1" parent="8SAc3HP20exjLuLPc1_A-1">
          <mxGeometry x="21" y="485" width="169" height="145" as="geometry" />
        </mxCell>
        <mxCell id="8SAc3HP20exjLuLPc1_A-15" value="" style="verticalLabelPosition=bottom;shadow=0;dashed=0;align=center;html=1;verticalAlign=top;strokeWidth=1;shape=mxgraph.mockup.graphics.simpleIcon;strokeColor=#999999;" vertex="1" parent="8SAc3HP20exjLuLPc1_A-1">
          <mxGeometry x="310" y="485" width="169" height="145" as="geometry" />
        </mxCell>
        <mxCell id="8SAc3HP20exjLuLPc1_A-16" value="" style="verticalLabelPosition=bottom;shadow=0;dashed=0;align=center;html=1;verticalAlign=top;strokeWidth=1;shape=mxgraph.mockup.graphics.simpleIcon;strokeColor=#999999;" vertex="1" parent="8SAc3HP20exjLuLPc1_A-1">
          <mxGeometry x="601" y="485" width="169" height="145" as="geometry" />
        </mxCell>
        <mxCell id="8SAc3HP20exjLuLPc1_A-17" value="" style="strokeColor=#999999;verticalLabelPosition=bottom;shadow=0;dashed=0;verticalAlign=top;strokeWidth=2;html=1;shape=mxgraph.mockup.misc.shareIcon;" vertex="1" parent="8SAc3HP20exjLuLPc1_A-1">
          <mxGeometry x="441" y="640" width="29" height="30" as="geometry" />
        </mxCell>
        <mxCell id="8SAc3HP20exjLuLPc1_A-18" value="" style="verticalLabelPosition=bottom;shadow=0;dashed=0;align=center;html=1;verticalAlign=top;strokeWidth=1;shape=mxgraph.mockup.misc.shoppingCart;strokeColor=#999999;" vertex="1" parent="8SAc3HP20exjLuLPc1_A-1">
          <mxGeometry x="390" y="640" width="30" height="30" as="geometry" />
        </mxCell>
        <mxCell id="8SAc3HP20exjLuLPc1_A-24" value="" style="rounded=0;whiteSpace=wrap;html=1;" vertex="1" parent="8SAc3HP20exjLuLPc1_A-1">
          <mxGeometry x="2" y="1010" width="820" height="180" as="geometry" />
        </mxCell>
        <mxCell id="8SAc3HP20exjLuLPc1_A-25" value="" style="strokeColor=#999999;verticalLabelPosition=bottom;shadow=0;dashed=0;verticalAlign=top;strokeWidth=2;html=1;shape=mxgraph.mockup.misc.copyrightIcon;" vertex="1" parent="8SAc3HP20exjLuLPc1_A-1">
          <mxGeometry x="382.5" y="1160" width="25" height="25" as="geometry" />
        </mxCell>
        <mxCell id="8SAc3HP20exjLuLPc1_A-26" value="" style="verticalLabelPosition=bottom;shadow=0;dashed=0;align=center;html=1;verticalAlign=top;strokeWidth=1;shape=mxgraph.mockup.misc.mail2;strokeColor=#999999;" vertex="1" parent="8SAc3HP20exjLuLPc1_A-1">
          <mxGeometry x="770" y="1020" width="33" height="30" as="geometry" />
        </mxCell>
        <mxCell id="8SAc3HP20exjLuLPc1_A-28" value="Events" style="shape=rectangle;strokeColor=none;fillColor=none;linkText=;fontSize=17;fontColor=#0000ff;fontStyle=4;html=1;align=center;" vertex="1" parent="8SAc3HP20exjLuLPc1_A-1">
          <mxGeometry x="310" y="130" width="150" height="30" as="geometry" />
        </mxCell>
        <mxCell id="8SAc3HP20exjLuLPc1_A-29" value="" style="verticalLabelPosition=bottom;shadow=0;dashed=0;align=center;html=1;verticalAlign=top;strokeWidth=1;shape=mxgraph.mockup.graphics.simpleIcon;strokeColor=#999999;" vertex="1" parent="8SAc3HP20exjLuLPc1_A-1">
          <mxGeometry x="21" y="720" width="169" height="145" as="geometry" />
        </mxCell>
        <mxCell id="8SAc3HP20exjLuLPc1_A-30" value="" style="verticalLabelPosition=bottom;shadow=0;dashed=0;align=center;html=1;verticalAlign=top;strokeWidth=1;shape=mxgraph.mockup.graphics.simpleIcon;strokeColor=#999999;" vertex="1" parent="8SAc3HP20exjLuLPc1_A-1">
          <mxGeometry x="310" y="720" width="169" height="145" as="geometry" />
        </mxCell>
        <mxCell id="8SAc3HP20exjLuLPc1_A-31" value="" style="verticalLabelPosition=bottom;shadow=0;dashed=0;align=center;html=1;verticalAlign=top;strokeWidth=1;shape=mxgraph.mockup.graphics.simpleIcon;strokeColor=#999999;" vertex="1" parent="8SAc3HP20exjLuLPc1_A-1">
          <mxGeometry x="601" y="720" width="169" height="145" as="geometry" />
        </mxCell>
        <mxCell id="8SAc3HP20exjLuLPc1_A-32" value="" style="strokeColor=#999999;verticalLabelPosition=bottom;shadow=0;dashed=0;verticalAlign=top;strokeWidth=2;html=1;shape=mxgraph.mockup.misc.shareIcon;" vertex="1" parent="8SAc3HP20exjLuLPc1_A-1">
          <mxGeometry x="441" y="875" width="29" height="30" as="geometry" />
        </mxCell>
        <mxCell id="8SAc3HP20exjLuLPc1_A-33" value="" style="verticalLabelPosition=bottom;shadow=0;dashed=0;align=center;html=1;verticalAlign=top;strokeWidth=1;shape=mxgraph.mockup.misc.shoppingCart;strokeColor=#999999;" vertex="1" parent="8SAc3HP20exjLuLPc1_A-1">
          <mxGeometry x="390" y="875" width="30" height="30" as="geometry" />
        </mxCell>
        <mxCell id="8SAc3HP20exjLuLPc1_A-36" value="Menu item" style="text;html=1;align=center;verticalAlign=middle;whiteSpace=wrap;rounded=0;" vertex="1" parent="8SAc3HP20exjLuLPc1_A-1">
          <mxGeometry x="60" y="520" width="60" height="30" as="geometry" />
        </mxCell>
        <mxCell id="8SAc3HP20exjLuLPc1_A-37" value="$$$$" style="text;html=1;align=center;verticalAlign=middle;whiteSpace=wrap;rounded=0;" vertex="1" parent="8SAc3HP20exjLuLPc1_A-1">
          <mxGeometry x="310" y="600" width="60" height="30" as="geometry" />
        </mxCell>
        <mxCell id="8SAc3HP20exjLuLPc1_A-38" value="" style="verticalLabelPosition=bottom;shadow=0;dashed=0;align=center;html=1;verticalAlign=top;strokeWidth=1;shape=mxgraph.mockup.misc.rating;strokeColor=#999999;fillColor=#ffff00;emptyFillColor=#ffffff;grade=4;ratingScale=5;ratingStyle=star;" vertex="1" parent="8SAc3HP20exjLuLPc1_A-1">
          <mxGeometry x="370" y="607.5" width="180" height="15" as="geometry" />
        </mxCell>
        <mxCell id="Jb-Mbs608s24mldEDeJ9-1" value="Button Text" style="strokeWidth=1;shadow=0;dashed=0;align=center;html=1;shape=mxgraph.mockup.buttons.button;strokeColor=#666666;fontColor=#ffffff;mainText=;buttonStyle=round;fontSize=17;fontStyle=1;fillColor=#008cff;whiteSpace=wrap;" vertex="1" parent="8SAc3HP20exjLuLPc1_A-1">
          <mxGeometry x="640" y="120" width="150" height="50" as="geometry" />
        </mxCell>
      </root>
    </mxGraphModel>
  </diagram>
  <diagram id="Cqv66vPB4qYcSszYsfOx" name="Reservation pop-up">
    <mxGraphModel dx="1681" dy="996" grid="1" gridSize="10" guides="1" tooltips="1" connect="1" arrows="1" fold="1" page="1" pageScale="1" pageWidth="850" pageHeight="1100" math="0" shadow="0">
      <root>
        <mxCell id="0" />
        <mxCell id="1" parent="0" />
        <mxCell id="gCBuMnaQQEN0DbxE30Di-1" value="" style="strokeWidth=1;shadow=0;dashed=0;align=center;html=1;shape=mxgraph.mockup.containers.browserWindow;rSize=0;strokeColor=#666666;strokeColor2=#008cff;strokeColor3=#c4c4c4;mainText=,;recursiveResize=0;" vertex="1" parent="1">
          <mxGeometry x="-20" y="600" width="824" height="1200" as="geometry" />
        </mxCell>
        <mxCell id="gCBuMnaQQEN0DbxE30Di-2" value="" style="rounded=0;whiteSpace=wrap;html=1;" vertex="1" parent="gCBuMnaQQEN0DbxE30Di-1">
          <mxGeometry y="110" width="810" height="70" as="geometry" />
        </mxCell>
        <mxCell id="gCBuMnaQQEN0DbxE30Di-3" value="Page 1" style="strokeWidth=1;shadow=0;dashed=0;align=center;html=1;shape=mxgraph.mockup.containers.anchor;fontSize=17;fontColor=#666666;align=left;whiteSpace=wrap;" vertex="1" parent="gCBuMnaQQEN0DbxE30Di-1">
          <mxGeometry x="60" y="12" width="110" height="26" as="geometry" />
        </mxCell>
        <mxCell id="gCBuMnaQQEN0DbxE30Di-4" value="https://www.draw.io" style="strokeWidth=1;shadow=0;dashed=0;align=center;html=1;shape=mxgraph.mockup.containers.anchor;rSize=0;fontSize=17;fontColor=#666666;align=left;" vertex="1" parent="gCBuMnaQQEN0DbxE30Di-1">
          <mxGeometry x="130" y="60" width="250" height="26" as="geometry" />
        </mxCell>
        <mxCell id="gCBuMnaQQEN0DbxE30Di-5" value="About US" style="shape=rectangle;strokeColor=none;fillColor=none;linkText=;fontSize=17;fontColor=#0000ff;fontStyle=4;html=1;align=center;" vertex="1" parent="gCBuMnaQQEN0DbxE30Di-1">
          <mxGeometry x="433" y="130" width="150" height="30" as="geometry" />
        </mxCell>
        <mxCell id="gCBuMnaQQEN0DbxE30Di-7" value="Menu" style="shape=rectangle;strokeColor=none;fillColor=none;linkText=;fontSize=17;fontColor=#0000ff;fontStyle=4;html=1;align=center;" vertex="1" parent="gCBuMnaQQEN0DbxE30Di-1">
          <mxGeometry x="193" y="130" width="150" height="30" as="geometry" />
        </mxCell>
        <mxCell id="gCBuMnaQQEN0DbxE30Di-8" value="&lt;font style=&quot;font-size: 27px;&quot;&gt;LOGO&lt;/font&gt;" style="text;html=1;align=center;verticalAlign=middle;whiteSpace=wrap;rounded=0;" vertex="1" parent="gCBuMnaQQEN0DbxE30Di-1">
          <mxGeometry x="21" y="110" width="129" height="70" as="geometry" />
        </mxCell>
        <mxCell id="gCBuMnaQQEN0DbxE30Di-9" value="" style="rounded=0;whiteSpace=wrap;html=1;" vertex="1" parent="gCBuMnaQQEN0DbxE30Di-1">
          <mxGeometry y="210" width="820" height="780" as="geometry" />
        </mxCell>
        <mxCell id="gCBuMnaQQEN0DbxE30Di-10" value="My item" style="text;html=1;align=center;verticalAlign=middle;whiteSpace=wrap;rounded=0;" vertex="1" parent="gCBuMnaQQEN0DbxE30Di-1">
          <mxGeometry x="275.5" y="300" width="239" height="30" as="geometry" />
        </mxCell>
        <mxCell id="gCBuMnaQQEN0DbxE30Di-13" value="" style="verticalLabelPosition=bottom;shadow=0;dashed=0;align=center;html=1;verticalAlign=top;strokeWidth=1;shape=mxgraph.mockup.graphics.simpleIcon;strokeColor=#999999;" vertex="1" parent="gCBuMnaQQEN0DbxE30Di-1">
          <mxGeometry x="160" y="240" width="480" height="660" as="geometry" />
        </mxCell>
        <mxCell id="gCBuMnaQQEN0DbxE30Di-18" value="" style="rounded=0;whiteSpace=wrap;html=1;" vertex="1" parent="gCBuMnaQQEN0DbxE30Di-1">
          <mxGeometry x="2" y="1010" width="820" height="180" as="geometry" />
        </mxCell>
        <mxCell id="gCBuMnaQQEN0DbxE30Di-19" value="" style="strokeColor=#999999;verticalLabelPosition=bottom;shadow=0;dashed=0;verticalAlign=top;strokeWidth=2;html=1;shape=mxgraph.mockup.misc.copyrightIcon;" vertex="1" parent="gCBuMnaQQEN0DbxE30Di-1">
          <mxGeometry x="382.5" y="1160" width="25" height="25" as="geometry" />
        </mxCell>
        <mxCell id="gCBuMnaQQEN0DbxE30Di-20" value="" style="verticalLabelPosition=bottom;shadow=0;dashed=0;align=center;html=1;verticalAlign=top;strokeWidth=1;shape=mxgraph.mockup.misc.mail2;strokeColor=#999999;" vertex="1" parent="gCBuMnaQQEN0DbxE30Di-1">
          <mxGeometry x="770" y="1020" width="33" height="30" as="geometry" />
        </mxCell>
        <mxCell id="gCBuMnaQQEN0DbxE30Di-21" value="Events" style="shape=rectangle;strokeColor=none;fillColor=none;linkText=;fontSize=17;fontColor=#0000ff;fontStyle=4;html=1;align=center;" vertex="1" parent="gCBuMnaQQEN0DbxE30Di-1">
          <mxGeometry x="310" y="130" width="150" height="30" as="geometry" />
        </mxCell>
        <mxCell id="ePwl11F5Dxc6Aze-SFxu-1" value="Button Text" style="strokeWidth=1;shadow=0;dashed=0;align=center;html=1;shape=mxgraph.mockup.buttons.button;strokeColor=#666666;fontColor=#ffffff;mainText=;buttonStyle=round;fontSize=17;fontStyle=1;fillColor=#008cff;whiteSpace=wrap;" vertex="1" parent="gCBuMnaQQEN0DbxE30Di-1">
          <mxGeometry x="600" y="120" width="150" height="50" as="geometry" />
        </mxCell>
        <mxCell id="ePwl11F5Dxc6Aze-SFxu-2" value="" style="strokeWidth=1;shadow=0;dashed=0;align=center;html=1;shape=mxgraph.mockup.forms.pwField;strokeColor=#999999;mainText=;align=left;fontColor=#666666;fontSize=17;spacingLeft=3;" vertex="1" parent="gCBuMnaQQEN0DbxE30Di-1">
          <mxGeometry x="193" y="340" width="307" height="30" as="geometry" />
        </mxCell>
        <mxCell id="ePwl11F5Dxc6Aze-SFxu-6" value="" style="strokeWidth=1;shadow=0;dashed=0;align=center;html=1;shape=mxgraph.mockup.forms.pwField;strokeColor=#999999;mainText=;align=left;fontColor=#666666;fontSize=17;spacingLeft=3;" vertex="1" parent="gCBuMnaQQEN0DbxE30Di-1">
          <mxGeometry x="193" y="650" width="307" height="180" as="geometry" />
        </mxCell>
        <mxCell id="ePwl11F5Dxc6Aze-SFxu-5" value="" style="strokeWidth=1;shadow=0;dashed=0;align=center;html=1;shape=mxgraph.mockup.forms.pwField;strokeColor=#999999;mainText=;align=left;fontColor=#666666;fontSize=17;spacingLeft=3;" vertex="1" parent="gCBuMnaQQEN0DbxE30Di-1">
          <mxGeometry x="193" y="570" width="307" height="30" as="geometry" />
        </mxCell>
        <mxCell id="ePwl11F5Dxc6Aze-SFxu-4" value="" style="strokeWidth=1;shadow=0;dashed=0;align=center;html=1;shape=mxgraph.mockup.forms.pwField;strokeColor=#999999;mainText=;align=left;fontColor=#666666;fontSize=17;spacingLeft=3;" vertex="1" parent="gCBuMnaQQEN0DbxE30Di-1">
          <mxGeometry x="520" y="480" width="107" height="30" as="geometry" />
        </mxCell>
        <mxCell id="ePwl11F5Dxc6Aze-SFxu-3" value="" style="strokeWidth=1;shadow=0;dashed=0;align=center;html=1;shape=mxgraph.mockup.forms.pwField;strokeColor=#999999;mainText=;align=left;fontColor=#666666;fontSize=17;spacingLeft=3;" vertex="1" parent="gCBuMnaQQEN0DbxE30Di-1">
          <mxGeometry x="320" y="480" width="105" height="30" as="geometry" />
        </mxCell>
        <mxCell id="ePwl11F5Dxc6Aze-SFxu-7" value="" style="strokeWidth=1;shadow=0;dashed=0;align=center;html=1;shape=mxgraph.mockup.forms.pwField;strokeColor=#999999;mainText=;align=left;fontColor=#666666;fontSize=17;spacingLeft=3;" vertex="1" parent="gCBuMnaQQEN0DbxE30Di-1">
          <mxGeometry x="193" y="410" width="307" height="30" as="geometry" />
        </mxCell>
        <mxCell id="ePwl11F5Dxc6Aze-SFxu-8" value="Submit" style="strokeWidth=1;shadow=0;dashed=0;align=center;html=1;shape=mxgraph.mockup.buttons.button;strokeColor=#666666;fontColor=#ffffff;mainText=;buttonStyle=round;fontSize=17;fontStyle=1;fillColor=#008cff;whiteSpace=wrap;" vertex="1" parent="gCBuMnaQQEN0DbxE30Di-1">
          <mxGeometry x="268" y="840" width="150" height="50" as="geometry" />
        </mxCell>
        <mxCell id="ePwl11F5Dxc6Aze-SFxu-9" value="Full Name" style="text;html=1;align=center;verticalAlign=middle;whiteSpace=wrap;rounded=0;" vertex="1" parent="gCBuMnaQQEN0DbxE30Di-1">
          <mxGeometry x="200" y="310" width="140" height="30" as="geometry" />
        </mxCell>
        <mxCell id="ePwl11F5Dxc6Aze-SFxu-14" value="Notes" style="text;html=1;align=center;verticalAlign=middle;whiteSpace=wrap;rounded=0;" vertex="1" parent="gCBuMnaQQEN0DbxE30Di-1">
          <mxGeometry x="193" y="620" width="140" height="30" as="geometry" />
        </mxCell>
        <mxCell id="ePwl11F5Dxc6Aze-SFxu-13" value="Number of people" style="text;html=1;align=center;verticalAlign=middle;whiteSpace=wrap;rounded=0;" vertex="1" parent="gCBuMnaQQEN0DbxE30Di-1">
          <mxGeometry x="198" y="540" width="140" height="30" as="geometry" />
        </mxCell>
        <mxCell id="ePwl11F5Dxc6Aze-SFxu-12" value="Time" style="text;html=1;align=center;verticalAlign=middle;whiteSpace=wrap;rounded=0;" vertex="1" parent="gCBuMnaQQEN0DbxE30Di-1">
          <mxGeometry x="445" y="480" width="92" height="30" as="geometry" />
        </mxCell>
        <mxCell id="ePwl11F5Dxc6Aze-SFxu-11" value="Day" style="text;html=1;align=center;verticalAlign=middle;whiteSpace=wrap;rounded=0;" vertex="1" parent="gCBuMnaQQEN0DbxE30Di-1">
          <mxGeometry x="180" y="480" width="140" height="30" as="geometry" />
        </mxCell>
        <mxCell id="ePwl11F5Dxc6Aze-SFxu-10" value="Contact Number" style="text;html=1;align=center;verticalAlign=middle;whiteSpace=wrap;rounded=0;" vertex="1" parent="gCBuMnaQQEN0DbxE30Di-1">
          <mxGeometry x="198" y="380" width="140" height="30" as="geometry" />
        </mxCell>
        <mxCell id="ePwl11F5Dxc6Aze-SFxu-15" value="Book here" style="text;strokeColor=none;fillColor=none;html=1;fontSize=24;fontStyle=1;verticalAlign=middle;align=center;" vertex="1" parent="gCBuMnaQQEN0DbxE30Di-1">
          <mxGeometry x="325" y="250" width="100" height="40" as="geometry" />
        </mxCell>
      </root>
    </mxGraphModel>
  </diagram>
  <diagram name="Message" id="tjLwIFEjC29zAhOuaRXE">
    <mxGraphModel dx="1681" dy="996" grid="1" gridSize="10" guides="1" tooltips="1" connect="1" arrows="1" fold="1" page="1" pageScale="1" pageWidth="850" pageHeight="1100" math="0" shadow="0">
      <root>
        <mxCell id="Sxx6rN9Cry5l-OHKxpUy-0" />
        <mxCell id="Sxx6rN9Cry5l-OHKxpUy-1" parent="Sxx6rN9Cry5l-OHKxpUy-0" />
        <mxCell id="Sxx6rN9Cry5l-OHKxpUy-2" value="" style="strokeWidth=1;shadow=0;dashed=0;align=center;html=1;shape=mxgraph.mockup.containers.browserWindow;rSize=0;strokeColor=#666666;strokeColor2=#008cff;strokeColor3=#c4c4c4;mainText=,;recursiveResize=0;" vertex="1" parent="Sxx6rN9Cry5l-OHKxpUy-1">
          <mxGeometry x="-20" y="600" width="824" height="1200" as="geometry" />
        </mxCell>
        <mxCell id="Sxx6rN9Cry5l-OHKxpUy-3" value="" style="rounded=0;whiteSpace=wrap;html=1;" vertex="1" parent="Sxx6rN9Cry5l-OHKxpUy-2">
          <mxGeometry y="110" width="810" height="70" as="geometry" />
        </mxCell>
        <mxCell id="Sxx6rN9Cry5l-OHKxpUy-4" value="Page 1" style="strokeWidth=1;shadow=0;dashed=0;align=center;html=1;shape=mxgraph.mockup.containers.anchor;fontSize=17;fontColor=#666666;align=left;whiteSpace=wrap;" vertex="1" parent="Sxx6rN9Cry5l-OHKxpUy-2">
          <mxGeometry x="60" y="12" width="110" height="26" as="geometry" />
        </mxCell>
        <mxCell id="Sxx6rN9Cry5l-OHKxpUy-5" value="https://www.draw.io" style="strokeWidth=1;shadow=0;dashed=0;align=center;html=1;shape=mxgraph.mockup.containers.anchor;rSize=0;fontSize=17;fontColor=#666666;align=left;" vertex="1" parent="Sxx6rN9Cry5l-OHKxpUy-2">
          <mxGeometry x="130" y="60" width="250" height="26" as="geometry" />
        </mxCell>
        <mxCell id="Sxx6rN9Cry5l-OHKxpUy-6" value="About US" style="shape=rectangle;strokeColor=none;fillColor=none;linkText=;fontSize=17;fontColor=#0000ff;fontStyle=4;html=1;align=center;" vertex="1" parent="Sxx6rN9Cry5l-OHKxpUy-2">
          <mxGeometry x="433" y="130" width="150" height="30" as="geometry" />
        </mxCell>
        <mxCell id="Sxx6rN9Cry5l-OHKxpUy-7" value="Menu" style="shape=rectangle;strokeColor=none;fillColor=none;linkText=;fontSize=17;fontColor=#0000ff;fontStyle=4;html=1;align=center;" vertex="1" parent="Sxx6rN9Cry5l-OHKxpUy-2">
          <mxGeometry x="193" y="130" width="150" height="30" as="geometry" />
        </mxCell>
        <mxCell id="Sxx6rN9Cry5l-OHKxpUy-8" value="&lt;font style=&quot;font-size: 27px;&quot;&gt;LOGO&lt;/font&gt;" style="text;html=1;align=center;verticalAlign=middle;whiteSpace=wrap;rounded=0;" vertex="1" parent="Sxx6rN9Cry5l-OHKxpUy-2">
          <mxGeometry x="21" y="110" width="129" height="70" as="geometry" />
        </mxCell>
        <mxCell id="Sxx6rN9Cry5l-OHKxpUy-9" value="" style="rounded=0;whiteSpace=wrap;html=1;" vertex="1" parent="Sxx6rN9Cry5l-OHKxpUy-2">
          <mxGeometry y="210" width="820" height="780" as="geometry" />
        </mxCell>
        <mxCell id="Sxx6rN9Cry5l-OHKxpUy-10" value="My item" style="text;html=1;align=center;verticalAlign=middle;whiteSpace=wrap;rounded=0;" vertex="1" parent="Sxx6rN9Cry5l-OHKxpUy-2">
          <mxGeometry x="275.5" y="300" width="239" height="30" as="geometry" />
        </mxCell>
        <mxCell id="Sxx6rN9Cry5l-OHKxpUy-11" value="" style="verticalLabelPosition=bottom;shadow=0;dashed=0;align=center;html=1;verticalAlign=top;strokeWidth=1;shape=mxgraph.mockup.graphics.simpleIcon;strokeColor=#999999;" vertex="1" parent="Sxx6rN9Cry5l-OHKxpUy-2">
          <mxGeometry x="160" y="240" width="480" height="660" as="geometry" />
        </mxCell>
        <mxCell id="Sxx6rN9Cry5l-OHKxpUy-12" value="" style="rounded=0;whiteSpace=wrap;html=1;" vertex="1" parent="Sxx6rN9Cry5l-OHKxpUy-2">
          <mxGeometry x="2" y="1010" width="820" height="180" as="geometry" />
        </mxCell>
        <mxCell id="Sxx6rN9Cry5l-OHKxpUy-13" value="" style="strokeColor=#999999;verticalLabelPosition=bottom;shadow=0;dashed=0;verticalAlign=top;strokeWidth=2;html=1;shape=mxgraph.mockup.misc.copyrightIcon;" vertex="1" parent="Sxx6rN9Cry5l-OHKxpUy-2">
          <mxGeometry x="382.5" y="1160" width="25" height="25" as="geometry" />
        </mxCell>
        <mxCell id="Sxx6rN9Cry5l-OHKxpUy-14" value="" style="verticalLabelPosition=bottom;shadow=0;dashed=0;align=center;html=1;verticalAlign=top;strokeWidth=1;shape=mxgraph.mockup.misc.mail2;strokeColor=#999999;" vertex="1" parent="Sxx6rN9Cry5l-OHKxpUy-2">
          <mxGeometry x="770" y="1020" width="33" height="30" as="geometry" />
        </mxCell>
        <mxCell id="Sxx6rN9Cry5l-OHKxpUy-15" value="Events" style="shape=rectangle;strokeColor=none;fillColor=none;linkText=;fontSize=17;fontColor=#0000ff;fontStyle=4;html=1;align=center;" vertex="1" parent="Sxx6rN9Cry5l-OHKxpUy-2">
          <mxGeometry x="310" y="130" width="150" height="30" as="geometry" />
        </mxCell>
        <mxCell id="Sxx6rN9Cry5l-OHKxpUy-16" value="Button Text" style="strokeWidth=1;shadow=0;dashed=0;align=center;html=1;shape=mxgraph.mockup.buttons.button;strokeColor=#666666;fontColor=#ffffff;mainText=;buttonStyle=round;fontSize=17;fontStyle=1;fillColor=#008cff;whiteSpace=wrap;" vertex="1" parent="Sxx6rN9Cry5l-OHKxpUy-2">
          <mxGeometry x="600" y="120" width="150" height="50" as="geometry" />
        </mxCell>
        <mxCell id="Sxx6rN9Cry5l-OHKxpUy-17" value="" style="strokeWidth=1;shadow=0;dashed=0;align=center;html=1;shape=mxgraph.mockup.forms.pwField;strokeColor=#999999;mainText=;align=left;fontColor=#666666;fontSize=17;spacingLeft=3;" vertex="1" parent="Sxx6rN9Cry5l-OHKxpUy-2">
          <mxGeometry x="193" y="340" width="307" height="30" as="geometry" />
        </mxCell>
        <mxCell id="Sxx6rN9Cry5l-OHKxpUy-18" value="" style="strokeWidth=1;shadow=0;dashed=0;align=center;html=1;shape=mxgraph.mockup.forms.pwField;strokeColor=#999999;mainText=;align=left;fontColor=#666666;fontSize=17;spacingLeft=3;" vertex="1" parent="Sxx6rN9Cry5l-OHKxpUy-2">
          <mxGeometry x="193" y="490" width="307" height="320" as="geometry" />
        </mxCell>
        <mxCell id="Sxx6rN9Cry5l-OHKxpUy-22" value="" style="strokeWidth=1;shadow=0;dashed=0;align=center;html=1;shape=mxgraph.mockup.forms.pwField;strokeColor=#999999;mainText=;align=left;fontColor=#666666;fontSize=17;spacingLeft=3;" vertex="1" parent="Sxx6rN9Cry5l-OHKxpUy-2">
          <mxGeometry x="193" y="410" width="307" height="30" as="geometry" />
        </mxCell>
        <mxCell id="Sxx6rN9Cry5l-OHKxpUy-23" value="Submit" style="strokeWidth=1;shadow=0;dashed=0;align=center;html=1;shape=mxgraph.mockup.buttons.button;strokeColor=#666666;fontColor=#ffffff;mainText=;buttonStyle=round;fontSize=17;fontStyle=1;fillColor=#008cff;whiteSpace=wrap;" vertex="1" parent="Sxx6rN9Cry5l-OHKxpUy-2">
          <mxGeometry x="268" y="840" width="150" height="50" as="geometry" />
        </mxCell>
        <mxCell id="Sxx6rN9Cry5l-OHKxpUy-24" value="Full Name" style="text;html=1;align=center;verticalAlign=middle;whiteSpace=wrap;rounded=0;" vertex="1" parent="Sxx6rN9Cry5l-OHKxpUy-2">
          <mxGeometry x="200" y="310" width="140" height="30" as="geometry" />
        </mxCell>
        <mxCell id="Sxx6rN9Cry5l-OHKxpUy-25" value="Message" style="text;html=1;align=center;verticalAlign=middle;whiteSpace=wrap;rounded=0;" vertex="1" parent="Sxx6rN9Cry5l-OHKxpUy-2">
          <mxGeometry x="193" y="460" width="140" height="30" as="geometry" />
        </mxCell>
        <mxCell id="Sxx6rN9Cry5l-OHKxpUy-29" value="Email" style="text;html=1;align=center;verticalAlign=middle;whiteSpace=wrap;rounded=0;" vertex="1" parent="Sxx6rN9Cry5l-OHKxpUy-2">
          <mxGeometry x="198" y="380" width="140" height="30" as="geometry" />
        </mxCell>
        <mxCell id="Sxx6rN9Cry5l-OHKxpUy-30" value="Write your message" style="text;strokeColor=none;fillColor=none;html=1;fontSize=24;fontStyle=1;verticalAlign=middle;align=center;" vertex="1" parent="Sxx6rN9Cry5l-OHKxpUy-2">
          <mxGeometry x="325" y="250" width="100" height="40" as="geometry" />
        </mxCell>
      </root>
    </mxGraphModel>
  </diagram>
  <diagram id="u7ivuwB1lV83n2Sphmid" name="Events">
    <mxGraphModel dx="1681" dy="996" grid="1" gridSize="10" guides="1" tooltips="1" connect="1" arrows="1" fold="1" page="1" pageScale="1" pageWidth="850" pageHeight="1100" math="0" shadow="0">
      <root>
        <mxCell id="0" />
        <mxCell id="1" parent="0" />
        <mxCell id="g7LPeDB4ZTdxVhEdUe8y-1" value="" style="strokeWidth=1;shadow=0;dashed=0;align=center;html=1;shape=mxgraph.mockup.containers.browserWindow;rSize=0;strokeColor=#666666;strokeColor2=#008cff;strokeColor3=#c4c4c4;mainText=,;recursiveResize=0;" vertex="1" parent="1">
          <mxGeometry x="-20" y="600" width="824" height="1200" as="geometry" />
        </mxCell>
        <mxCell id="g7LPeDB4ZTdxVhEdUe8y-2" value="" style="rounded=0;whiteSpace=wrap;html=1;" vertex="1" parent="g7LPeDB4ZTdxVhEdUe8y-1">
          <mxGeometry y="110" width="810" height="70" as="geometry" />
        </mxCell>
        <mxCell id="g7LPeDB4ZTdxVhEdUe8y-3" value="Page 1" style="strokeWidth=1;shadow=0;dashed=0;align=center;html=1;shape=mxgraph.mockup.containers.anchor;fontSize=17;fontColor=#666666;align=left;whiteSpace=wrap;" vertex="1" parent="g7LPeDB4ZTdxVhEdUe8y-1">
          <mxGeometry x="60" y="12" width="110" height="26" as="geometry" />
        </mxCell>
        <mxCell id="g7LPeDB4ZTdxVhEdUe8y-4" value="https://www.draw.io" style="strokeWidth=1;shadow=0;dashed=0;align=center;html=1;shape=mxgraph.mockup.containers.anchor;rSize=0;fontSize=17;fontColor=#666666;align=left;" vertex="1" parent="g7LPeDB4ZTdxVhEdUe8y-1">
          <mxGeometry x="130" y="60" width="250" height="26" as="geometry" />
        </mxCell>
        <mxCell id="g7LPeDB4ZTdxVhEdUe8y-5" value="About US" style="shape=rectangle;strokeColor=none;fillColor=none;linkText=;fontSize=17;fontColor=#0000ff;fontStyle=4;html=1;align=center;" vertex="1" parent="g7LPeDB4ZTdxVhEdUe8y-1">
          <mxGeometry x="433" y="130" width="150" height="30" as="geometry" />
        </mxCell>
        <mxCell id="g7LPeDB4ZTdxVhEdUe8y-7" value="Menu" style="shape=rectangle;strokeColor=none;fillColor=none;linkText=;fontSize=17;fontColor=#0000ff;fontStyle=4;html=1;align=center;" vertex="1" parent="g7LPeDB4ZTdxVhEdUe8y-1">
          <mxGeometry x="141" y="130" width="150" height="30" as="geometry" />
        </mxCell>
        <mxCell id="g7LPeDB4ZTdxVhEdUe8y-8" value="&lt;font style=&quot;font-size: 27px;&quot;&gt;LOGO&lt;/font&gt;" style="text;html=1;align=center;verticalAlign=middle;whiteSpace=wrap;rounded=0;" vertex="1" parent="g7LPeDB4ZTdxVhEdUe8y-1">
          <mxGeometry x="21" y="110" width="129" height="70" as="geometry" />
        </mxCell>
        <mxCell id="g7LPeDB4ZTdxVhEdUe8y-9" value="" style="rounded=0;whiteSpace=wrap;html=1;" vertex="1" parent="g7LPeDB4ZTdxVhEdUe8y-1">
          <mxGeometry y="210" width="820" height="780" as="geometry" />
        </mxCell>
        <mxCell id="g7LPeDB4ZTdxVhEdUe8y-10" value="Menu Suggestions" style="text;html=1;align=center;verticalAlign=middle;whiteSpace=wrap;rounded=0;" vertex="1" parent="g7LPeDB4ZTdxVhEdUe8y-1">
          <mxGeometry x="275" y="220" width="239" height="30" as="geometry" />
        </mxCell>
        <mxCell id="g7LPeDB4ZTdxVhEdUe8y-12" value="" style="verticalLabelPosition=bottom;shadow=0;dashed=0;align=center;html=1;verticalAlign=top;strokeWidth=1;shape=mxgraph.mockup.graphics.simpleIcon;strokeColor=#999999;" vertex="1" parent="g7LPeDB4ZTdxVhEdUe8y-1">
          <mxGeometry x="21" y="485" width="169" height="355" as="geometry" />
        </mxCell>
        <mxCell id="g7LPeDB4ZTdxVhEdUe8y-18" value="" style="rounded=0;whiteSpace=wrap;html=1;" vertex="1" parent="g7LPeDB4ZTdxVhEdUe8y-1">
          <mxGeometry x="2" y="1010" width="820" height="180" as="geometry" />
        </mxCell>
        <mxCell id="g7LPeDB4ZTdxVhEdUe8y-19" value="" style="strokeColor=#999999;verticalLabelPosition=bottom;shadow=0;dashed=0;verticalAlign=top;strokeWidth=2;html=1;shape=mxgraph.mockup.misc.copyrightIcon;" vertex="1" parent="g7LPeDB4ZTdxVhEdUe8y-1">
          <mxGeometry x="382.5" y="1160" width="25" height="25" as="geometry" />
        </mxCell>
        <mxCell id="g7LPeDB4ZTdxVhEdUe8y-20" value="" style="verticalLabelPosition=bottom;shadow=0;dashed=0;align=center;html=1;verticalAlign=top;strokeWidth=1;shape=mxgraph.mockup.misc.mail2;strokeColor=#999999;" vertex="1" parent="g7LPeDB4ZTdxVhEdUe8y-1">
          <mxGeometry x="770" y="1020" width="33" height="30" as="geometry" />
        </mxCell>
        <mxCell id="g7LPeDB4ZTdxVhEdUe8y-21" value="Events" style="shape=rectangle;strokeColor=none;fillColor=none;linkText=;fontSize=17;fontColor=#0000ff;fontStyle=4;html=1;align=center;" vertex="1" parent="g7LPeDB4ZTdxVhEdUe8y-1">
          <mxGeometry x="283" y="130" width="150" height="30" as="geometry" />
        </mxCell>
        <mxCell id="g7LPeDB4ZTdxVhEdUe8y-22" value="" style="verticalLabelPosition=bottom;shadow=0;dashed=0;align=center;html=1;verticalAlign=top;strokeWidth=1;shape=mxgraph.mockup.graphics.simpleIcon;strokeColor=#999999;" vertex="1" parent="g7LPeDB4ZTdxVhEdUe8y-1">
          <mxGeometry x="250" y="480" width="530" height="360" as="geometry" />
        </mxCell>
        <mxCell id="g7LPeDB4ZTdxVhEdUe8y-30" value="Past" style="text;strokeColor=none;fillColor=none;html=1;fontSize=24;fontStyle=1;verticalAlign=middle;align=center;" vertex="1" parent="g7LPeDB4ZTdxVhEdUe8y-1">
          <mxGeometry x="65" y="440" width="100" height="40" as="geometry" />
        </mxCell>
        <mxCell id="g7LPeDB4ZTdxVhEdUe8y-32" value="Design" style="text;html=1;align=center;verticalAlign=middle;whiteSpace=wrap;rounded=0;" vertex="1" parent="g7LPeDB4ZTdxVhEdUe8y-1">
          <mxGeometry x="75.5" y="542.5" width="60" height="30" as="geometry" />
        </mxCell>
        <mxCell id="g7LPeDB4ZTdxVhEdUe8y-35" value="" style="verticalLabelPosition=bottom;shadow=0;dashed=0;align=center;html=1;verticalAlign=top;strokeWidth=1;shape=mxgraph.mockup.misc.shoppingCart;strokeColor=#999999;" vertex="1" parent="g7LPeDB4ZTdxVhEdUe8y-1">
          <mxGeometry x="705" y="600" width="25" height="30" as="geometry" />
        </mxCell>
        <mxCell id="IPE1xfFx6hYijrgXDNAx-1" value="Future" style="text;strokeColor=none;fillColor=none;html=1;fontSize=24;fontStyle=1;verticalAlign=middle;align=center;" vertex="1" parent="g7LPeDB4ZTdxVhEdUe8y-1">
          <mxGeometry x="265" y="440" width="100" height="40" as="geometry" />
        </mxCell>
      </root>
    </mxGraphModel>
  </diagram>
  <diagram id="ljkBU4Z6hgsKQ_pYOlNC" name="About">
    <mxGraphModel dx="1681" dy="996" grid="1" gridSize="10" guides="1" tooltips="1" connect="1" arrows="1" fold="1" page="1" pageScale="1" pageWidth="850" pageHeight="1100" math="0" shadow="0">
      <root>
        <mxCell id="0" />
        <mxCell id="1" parent="0" />
        <mxCell id="bTkTrgeAgyG6OQdksUe0-1" value="" style="strokeWidth=1;shadow=0;dashed=0;align=center;html=1;shape=mxgraph.mockup.containers.browserWindow;rSize=0;strokeColor=#666666;strokeColor2=#008cff;strokeColor3=#c4c4c4;mainText=,;recursiveResize=0;" vertex="1" parent="1">
          <mxGeometry x="-20" y="600" width="824" height="1200" as="geometry" />
        </mxCell>
        <mxCell id="bTkTrgeAgyG6OQdksUe0-2" value="" style="rounded=0;whiteSpace=wrap;html=1;" vertex="1" parent="bTkTrgeAgyG6OQdksUe0-1">
          <mxGeometry y="110" width="810" height="70" as="geometry" />
        </mxCell>
        <mxCell id="bTkTrgeAgyG6OQdksUe0-3" value="Page 1" style="strokeWidth=1;shadow=0;dashed=0;align=center;html=1;shape=mxgraph.mockup.containers.anchor;fontSize=17;fontColor=#666666;align=left;whiteSpace=wrap;" vertex="1" parent="bTkTrgeAgyG6OQdksUe0-1">
          <mxGeometry x="60" y="12" width="110" height="26" as="geometry" />
        </mxCell>
        <mxCell id="bTkTrgeAgyG6OQdksUe0-4" value="https://www.draw.io" style="strokeWidth=1;shadow=0;dashed=0;align=center;html=1;shape=mxgraph.mockup.containers.anchor;rSize=0;fontSize=17;fontColor=#666666;align=left;" vertex="1" parent="bTkTrgeAgyG6OQdksUe0-1">
          <mxGeometry x="130" y="60" width="250" height="26" as="geometry" />
        </mxCell>
        <mxCell id="bTkTrgeAgyG6OQdksUe0-5" value="About US" style="shape=rectangle;strokeColor=none;fillColor=none;linkText=;fontSize=17;fontColor=#0000ff;fontStyle=4;html=1;align=center;" vertex="1" parent="bTkTrgeAgyG6OQdksUe0-1">
          <mxGeometry x="433" y="130" width="150" height="30" as="geometry" />
        </mxCell>
        <mxCell id="bTkTrgeAgyG6OQdksUe0-7" value="Menu" style="shape=rectangle;strokeColor=none;fillColor=none;linkText=;fontSize=17;fontColor=#0000ff;fontStyle=4;html=1;align=center;" vertex="1" parent="bTkTrgeAgyG6OQdksUe0-1">
          <mxGeometry x="193" y="130" width="150" height="30" as="geometry" />
        </mxCell>
        <mxCell id="bTkTrgeAgyG6OQdksUe0-8" value="&lt;font style=&quot;font-size: 27px;&quot;&gt;LOGO&lt;/font&gt;" style="text;html=1;align=center;verticalAlign=middle;whiteSpace=wrap;rounded=0;" vertex="1" parent="bTkTrgeAgyG6OQdksUe0-1">
          <mxGeometry x="21" y="110" width="129" height="70" as="geometry" />
        </mxCell>
        <mxCell id="bTkTrgeAgyG6OQdksUe0-11" value="" style="rounded=0;whiteSpace=wrap;html=1;" vertex="1" parent="bTkTrgeAgyG6OQdksUe0-1">
          <mxGeometry y="440" width="810" height="430" as="geometry" />
        </mxCell>
        <mxCell id="bTkTrgeAgyG6OQdksUe0-12" value="Mission and values" style="text;html=1;align=center;verticalAlign=middle;whiteSpace=wrap;rounded=0;" vertex="1" parent="bTkTrgeAgyG6OQdksUe0-1">
          <mxGeometry x="270.5" y="455" width="239" height="30" as="geometry" />
        </mxCell>
        <mxCell id="bTkTrgeAgyG6OQdksUe0-24" value="" style="rounded=0;whiteSpace=wrap;html=1;" vertex="1" parent="bTkTrgeAgyG6OQdksUe0-1">
          <mxGeometry x="2" y="1010" width="820" height="180" as="geometry" />
        </mxCell>
        <mxCell id="bTkTrgeAgyG6OQdksUe0-25" value="" style="strokeColor=#999999;verticalLabelPosition=bottom;shadow=0;dashed=0;verticalAlign=top;strokeWidth=2;html=1;shape=mxgraph.mockup.misc.copyrightIcon;" vertex="1" parent="bTkTrgeAgyG6OQdksUe0-1">
          <mxGeometry x="382.5" y="1160" width="25" height="25" as="geometry" />
        </mxCell>
        <mxCell id="bTkTrgeAgyG6OQdksUe0-26" value="" style="verticalLabelPosition=bottom;shadow=0;dashed=0;align=center;html=1;verticalAlign=top;strokeWidth=1;shape=mxgraph.mockup.misc.mail2;strokeColor=#999999;" vertex="1" parent="bTkTrgeAgyG6OQdksUe0-1">
          <mxGeometry x="770" y="1020" width="33" height="30" as="geometry" />
        </mxCell>
        <mxCell id="bTkTrgeAgyG6OQdksUe0-27" value="&lt;h1 style=&quot;margin-top: 0px;&quot;&gt;About us&lt;/h1&gt;" style="text;html=1;whiteSpace=wrap;overflow=hidden;rounded=0;align=center;" vertex="1" parent="bTkTrgeAgyG6OQdksUe0-1">
          <mxGeometry x="250" y="250" width="280" height="120" as="geometry" />
        </mxCell>
        <mxCell id="bTkTrgeAgyG6OQdksUe0-28" value="Events" style="shape=rectangle;strokeColor=none;fillColor=none;linkText=;fontSize=17;fontColor=#0000ff;fontStyle=4;html=1;align=center;" vertex="1" parent="bTkTrgeAgyG6OQdksUe0-1">
          <mxGeometry x="300" y="130" width="150" height="30" as="geometry" />
        </mxCell>
      </root>
    </mxGraphModel>
  </diagram>
</mxfile>
